<svg xmlns="http://www.w3.org/2000/svg" xmlns:xlink="http://www.w3.org/1999/xlink" width="124" zoomAndPan="magnify" viewBox="0 0 93 92.999996" height="124" preserveAspectRatio="xMidYMid meet" version="1.2"><defs><clipPath id="b966b2552c"><path d="M 9.558594 9.609375 L 49.183594 9.609375 L 49.183594 49.234375 L 9.558594 49.234375 Z M 9.558594 9.609375 "/></clipPath><clipPath id="0dba092f42"><path d="M 8.578125 49.242188 L 41.511719 49.242188 L 41.511719 82.175781 L 8.578125 82.175781 Z M 8.578125 49.242188 "/></clipPath><clipPath id="03f2f7f11d"><path d="M 49.191406 8.527344 L 82.125 8.527344 L 82.125 41.460938 L 49.191406 41.460938 Z M 49.191406 8.527344 "/></clipPath><clipPath id="fe53c2a897"><path d="M 51.378906 51.429688 L 84.3125 51.429688 L 84.3125 84.363281 L 51.378906 84.363281 Z M 51.378906 51.429688 "/></clipPath></defs><g id="ff1ebb82b1"><g clip-rule="nonzero" clip-path="url(#b966b2552c)"><path style=" stroke:none;fill-rule:nonzero;fill:#f14902;fill-opacity:1;" d="M 9.558594 49.234375 C 31.441406 49.234375 49.183594 31.492188 49.183594 9.609375 L 9.558594 9.609375 Z M 9.558594 49.234375 "/></g><g clip-rule="nonzero" clip-path="url(#0dba092f42)"><path style=" stroke:none;fill-rule:nonzero;fill:#f14902;fill-opacity:1;" d="M 41.511719 49.242188 C 23.324219 49.242188 8.578125 63.988281 8.578125 82.175781 L 41.511719 82.175781 Z M 41.511719 49.242188 "/></g><g clip-rule="nonzero" clip-path="url(#03f2f7f11d)"><path style=" stroke:none;fill-rule:nonzero;fill:#f14902;fill-opacity:1;" d="M 82.125 8.527344 C 63.9375 8.527344 49.191406 23.273438 49.191406 41.460938 L 82.125 41.460938 Z M 82.125 8.527344 "/></g><g clip-rule="nonzero" clip-path="url(#fe53c2a897)"><path style=" stroke:none;fill-rule:nonzero;fill:#f14902;fill-opacity:1;" d="M 51.378906 84.363281 C 69.566406 84.363281 84.3125 69.617188 84.3125 51.429688 L 51.378906 51.429688 Z M 51.378906 84.363281 "/></g></g></svg>