<?xml version="1.0" encoding="UTF-8"?>
<svg version="1.1" xmlns="http://www.w3.org/2000/svg" width="312" height="70">
<path d="M0 0 C2.64 0 5.28 0 8 0 C8 2.97 8 5.94 8 9 C10.97 9 13.94 9 17 9 C17 11.31 17 13.62 17 16 C14.03 16 11.06 16 8 16 C8.495 23.425 8.495 23.425 9 31 C11.64 31.66 14.28 32.32 17 33 C17 34.98 17 36.96 17 39 C15.08458862 39.10841951 13.16740227 39.18578079 11.25 39.25 C10.18265625 39.29640625 9.1153125 39.3428125 8.015625 39.390625 C4.32566594 38.91265103 3.27373274 37.86872822 1 35 C-0.65497356 31.69005287 -0.10084335 28.00877 -0.0625 24.375 C-0.05798828 23.57320312 -0.05347656 22.77140625 -0.04882812 21.9453125 C-0.03703168 19.96350994 -0.01909605 17.98174567 0 16 C-1.32 16 -2.64 16 -4 16 C-4 16.66 -4 17.32 -4 18 C-10.0546875 18.1953125 -10.0546875 18.1953125 -12 18 C-12.66 17.34 -13.32 16.68 -14 16 C-16.58354218 15.83312552 -16.58354218 15.83312552 -19 16 C-19 16.99 -19 17.98 -19 19 C-18.09636719 19.23074219 -17.19273437 19.46148438 -16.26171875 19.69921875 C-14.49248047 20.18841797 -14.49248047 20.18841797 -12.6875 20.6875 C-11.51574219 21.00074219 -10.34398437 21.31398438 -9.13671875 21.63671875 C-5.48142372 23.22538371 -4.51970538 24.36592191 -3 28 C-3.0711071 32.05310471 -3.35644235 34.21112288 -5.9375 37.375 C-9.34806157 40.06210911 -11.50629493 40.18628303 -15.8125 40.25 C-16.85019531 40.27578125 -17.88789063 40.3015625 -18.95703125 40.328125 C-22.42582145 39.95408344 -24.22110993 39.07568054 -27 37 C-29.1519437 33.77208445 -29.20086443 32.71599191 -29 29 C-25.75 28.75 -25.75 28.75 -22 29 C-20.64631404 30.31266518 -19.31200404 31.64567325 -18 33 C-14.832168 33.33448259 -14.832168 33.33448259 -12 33 C-12.33 31.68 -12.66 30.36 -13 29 C-13.74765625 28.82984375 -14.4953125 28.6596875 -15.265625 28.484375 C-16.25046875 28.24203125 -17.2353125 27.9996875 -18.25 27.75 C-19.22453125 27.51796875 -20.1990625 27.2859375 -21.203125 27.046875 C-24.40172831 25.84963242 -25.92258524 24.69869768 -28 22 C-28.73348174 18.93663511 -28.57369881 16.09002129 -28 13 C-25.80168636 9.96784325 -24.55036806 9.18345602 -21 8 C-15.54807269 7.46910071 -11.49299063 7.52155564 -7 11 C-6.67 10.34 -6.34 9.68 -6 9 C-4.02 9 -2.04 9 0 9 C0 6.03 0 3.06 0 0 Z " fill="#EAE0D7" transform="translate(288,11)"/>
<path d="M0 0 C4.49043223 2.58967626 7.22460312 4.9850863 8.73828125 10.09375 C9.36439505 15.40382903 9.42167435 19.64811074 7.11328125 24.53125 C3.62777444 28.2919284 1.15326782 30.76865565 -4.10546875 31.4765625 C-8.83387319 31.65212207 -12.38442439 31.4697333 -16.76171875 29.59375 C-21.04155506 25.31391369 -23.47254688 20.9154526 -23.57421875 14.78125 C-23.26171875 11.09375 -23.26171875 11.09375 -22.26171875 8.09375 C-24.57171875 8.42375 -26.88171875 8.75375 -29.26171875 9.09375 C-31.41602255 13.5337176 -31.67917721 17.56793774 -31.88671875 22.40625 C-31.94472656 23.51709961 -31.94472656 23.51709961 -32.00390625 24.65039062 C-32.0975358 26.46446309 -32.18068726 28.27907116 -32.26171875 30.09375 C-34.90171875 30.09375 -37.54171875 30.09375 -40.26171875 30.09375 C-40.26171875 20.19375 -40.26171875 10.29375 -40.26171875 0.09375 C-37.62171875 0.09375 -34.98171875 0.09375 -32.26171875 0.09375 C-31.93171875 0.75375 -31.60171875 1.41375 -31.26171875 2.09375 C-30.27171875 1.43375 -29.28171875 0.77375 -28.26171875 0.09375 C-25.92972487 0.01469936 -23.59339253 0.00576231 -21.26171875 0.09375 C-20.93171875 1.74375 -20.60171875 3.39375 -20.26171875 5.09375 C-19.33359375 4.289375 -18.40546875 3.485 -17.44921875 2.65625 C-12.51849087 -1.6170475 -6.06855655 -2.43161506 0 0 Z M-13.26171875 9.09375 C-15.41913096 11.72016487 -15.26077465 13.14661942 -15.19921875 16.59375 C-14.51134194 20.16184585 -14.51134194 20.16184585 -12.13671875 22.59375 C-8.32639004 24.58174759 -6.34207471 24.30274436 -2.26171875 23.09375 C-0.02253456 21.2879563 0.58773312 20.01021172 1.05078125 17.19140625 C1.26792162 13.54751947 1.15791596 11.6782412 -1.01171875 8.65625 C-5.87323386 5.28019784 -8.22027592 5.91544908 -13.26171875 9.09375 Z " fill="#EBE1D8" transform="translate(135.26171875,19.90625)"/>
<path d="M0 0 C3.56440163 2.48930883 5.61734984 4.96450385 7.625 8.8125 C7.625 9.8025 7.625 10.7925 7.625 11.8125 C4.76311024 12.05503303 2.43109191 12.25062587 -0.375 11.8125 C-3.1875 9.375 -3.1875 9.375 -5.375 6.8125 C-8.99430698 5.60606434 -11.56731005 5.48981441 -15.375 5.8125 C-19.40185088 7.93989292 -21.68435136 9.59745818 -23.375 13.8125 C-24.10663625 18.49156904 -23.78195361 21.98352041 -21.6875 26.25 C-19.17611756 29.03288324 -18.02617445 30.06566886 -14.375 30.8125 C-9.69665455 30.96464132 -7.09898648 30.41325474 -3.4375 27.375 C-1.38650661 25.01253792 -1.38650661 25.01253792 -0.375 22.8125 C-4.335 22.8125 -8.295 22.8125 -12.375 22.8125 C-12.375 20.5025 -12.375 18.1925 -12.375 15.8125 C-5.445 15.8125 1.485 15.8125 8.625 15.8125 C8.625 23.78574194 7.94493287 27.45634877 3.625 33.8125 C-1.78063509 38.96136743 -7.95575626 39.21959561 -15.07421875 39.15625 C-21.37367138 38.50021233 -24.72332955 35.32054694 -29.25 31.1875 C-32.80830364 25.53607657 -34.15686533 19.10339493 -32.75 12.5 C-30.32420075 5.99444747 -27.5034429 2.17713532 -21.375 -1.1875 C-14.13546793 -4.11115718 -6.8029102 -3.92719211 0 0 Z " fill="#EAE0D7" transform="translate(85.375,12.1875)"/>
<path d="M0 0 C2.64 0 5.28 0 8 0 C8.62958174 1.51894235 9.25340464 3.04027195 9.875 4.5625 C10.39707031 5.83287109 10.39707031 5.83287109 10.9296875 7.12890625 C12.14402636 10.38634807 13.08020934 13.64815025 14 17 C14.34933594 15.85660156 14.69867188 14.71320312 15.05859375 13.53515625 C15.51806463 12.04422012 15.97770901 10.55333745 16.4375 9.0625 C16.66759766 8.30775391 16.89769531 7.55300781 17.13476562 6.77539062 C18.88671875 1.11328125 18.88671875 1.11328125 20 0 C21.99958364 -0.04080783 24.00045254 -0.04254356 26 0 C26.34933594 1.07121094 26.69867188 2.14242188 27.05859375 3.24609375 C27.51807145 4.64328104 27.97771546 6.04041365 28.4375 7.4375 C28.66759766 8.14455078 28.89769531 8.85160156 29.13476562 9.58007812 C30.07421147 13.06306795 30.07421147 13.06306795 32 16 C33.65 10.72 35.3 5.44 37 0 C39.97 0 42.94 0 46 0 C44.24921002 6.97244431 42.13759651 13.80475242 39.875 20.625 C39.47643799 21.83422119 39.47643799 21.83422119 39.06982422 23.06787109 C37.12376909 28.87623091 37.12376909 28.87623091 36 30 C33.32941149 30.14115161 30.67567762 30.04247107 28 30 C25.525 22.575 25.525 22.575 23 15 C21.39639698 19.56127862 21.39639698 19.56127862 19.79907227 24.12475586 C18.11111111 28.88888889 18.11111111 28.88888889 17 30 C14.32941149 30.14115161 11.67567762 30.04247107 9 30 C7.71248643 26.21165112 6.43090931 22.42135154 5.15478516 18.62915039 C4.71988772 17.33953841 4.28337578 16.05046971 3.84521484 14.76196289 C3.21547426 12.9091547 2.59202743 11.05421111 1.96875 9.19921875 C1.59169922 8.08377686 1.21464844 6.96833496 0.82617188 5.8190918 C0 3 0 3 0 0 Z " fill="#EAE0D7" transform="translate(142,20)"/>
<path d="M0 0 C3 1.5 3 1.5 5 3 C5.33 2.34 5.66 1.68 6 1 C8.31 1 10.62 1 13 1 C13 10.9 13 20.8 13 31 C10.69 31 8.38 31 6 31 C5.67 30.34 5.34 29.68 5 29 C4.44957031 29.48339844 3.89914063 29.96679688 3.33203125 30.46484375 C-0.80752454 33.18987796 -5.2368077 32.82750375 -10 32 C-14.09443193 29.88744736 -16.39419988 27.21160025 -18.4375 23.125 C-19.79934929 15.55917059 -19.32697515 10.40923965 -15 4 C-10.66688834 -0.07049883 -5.79069736 -0.67595689 0 0 Z M-9 10 C-11.15741221 12.62641487 -10.9990559 14.05286942 -10.9375 17.5 C-10.24962319 21.06809585 -10.24962319 21.06809585 -7.875 23.5 C-4.06467129 25.48799759 -2.08035596 25.20899436 2 24 C4.23918419 22.1942063 4.84945187 20.91646172 5.3125 18.09765625 C5.52964037 14.45376947 5.41963471 12.5844912 3.25 9.5625 C-1.61151511 6.18644784 -3.95855717 6.82169908 -9 10 Z " fill="#EEE4DB" transform="translate(244,19)"/>
<path d="M0 0 C9.24 0 18.48 0 28 0 C28 2.64 28 5.28 28 8 C21.73 8 15.46 8 9 8 C9 11.3 9 14.6 9 18 C14.61 18 20.22 18 26 18 C26 20.31 26 22.62 26 25 C20.39 25 14.78 25 9 25 C9 29.95 9 34.9 9 40 C6.03 40 3.06 40 0 40 C0 26.8 0 13.6 0 0 Z " fill="#E3D9D0" transform="translate(198,10)"/>
<path d="M0 0 C7.92 0 15.84 0 24 0 C22.94166922 8.46664624 21.35276293 13.27734585 15 18.875 C9.42320291 22.82523127 7.17922586 23 0 23 C0 15.41 0 7.82 0 0 Z " fill="#E44501" transform="translate(0,16)"/>
<path d="M0 0 C6.93 0 13.86 0 21 0 C20.03724241 8.66481833 19.66171214 11.70445907 13.5 17.25 C8.23182822 20.93772025 7.13098896 21 0 21 C0 14.07 0 7.14 0 0 Z " fill="#E24401" transform="translate(23,38)"/>
<path d="M0 0 C0 6.93 0 13.86 0 21 C-6.93 21 -13.86 21 -21 21 C-20.03568583 12.32117243 -19.60691042 9.7558863 -14 4 C-9.23641428 0.48402006 -5.88550652 0 0 0 Z " fill="#E24401" transform="translate(44,15)"/>
<path d="M0 0 C0 6.6 0 13.2 0 20 C-6.93 20 -13.86 20 -21 20 C-21 12.27699794 -19.9109117 9.56785383 -15 4 C-10.51934806 0.41351325 -5.59225631 -1.86408544 0 0 Z " fill="#E34501" transform="translate(21,39)"/>
<path d="M0 0 C4 0 8 0 12 0 C12.33 0.99 12.66 1.98 13 3 C16.465 2.505 16.465 2.505 20 2 C20 1.34 20 0.68 20 0 C20.99 0 21.98 0 23 0 C23.33 0.33 23.66 0.66 24 1 C24.66 1 25.32 1 26 1 C26 1.66 26 2.32 26 3 C29.3 3 32.6 3 36 3 C36 2.01 36 1.02 36 0 C36.99 0 37.98 0 39 0 C39 3.63 39 7.26 39 11 C33.66666667 11 28.33333333 11 23 11 C22.236875 11.515625 21.47375 12.03125 20.6875 12.5625 C18 14 18 14 15.5625 13.8125 C13.73493504 13.23302818 11.92335373 12.60210899 10.125 11.9375 C6.6176678 10.88530034 3.64191576 10.85432337 0 11 C0 7.37 0 3.74 0 0 Z M3 3 C3 4.65 3 6.3 3 8 C4.32 7.67 5.64 7.34 7 7 C6.67 5.68 6.34 4.36 6 3 C5.01 3 4.02 3 3 3 Z M15 5 C15 5.99 15 6.98 15 8 C15.66 8 16.32 8 17 8 C17 7.01 17 6.02 17 5 C16.34 5 15.68 5 15 5 Z M26 5 C26.33 6.32 26.66 7.64 27 9 C27.33 7.68 27.66 6.36 28 5 C27.34 5 26.68 5 26 5 Z M31 5 C31 6.32 31 7.64 31 9 C31.66 8.67 32.32 8.34 33 8 C33 7.01 33 6.02 33 5 C32.34 5 31.68 5 31 5 Z " fill="#D33F01" transform="translate(96,4)"/>
<path d="M0 0 C2.31 0 4.62 0 7 0 C7 0.99 7 1.98 7 3 C13.6 3 20.2 3 27 3 C27.33 2.01 27.66 1.02 28 0 C28.99 0 29.98 0 31 0 C31 0.66 31 1.32 31 2 C32.17369141 2.09087891 32.17369141 2.09087891 33.37109375 2.18359375 C34.38300781 2.26738281 35.39492187 2.35117188 36.4375 2.4375 C37.95150391 2.55931641 37.95150391 2.55931641 39.49609375 2.68359375 C42 3 42 3 43 4 C43.125 7 43.125 7 43 10 C42 11 42 11 39.625 11.375 C38.75875 11.25125 37.8925 11.1275 37 11 C35.1875 8.5 35.1875 8.5 34 6 C33.67 7.65 33.34 9.3 33 11 C29.37 11 25.74 11 22 11 C22 11.66 22 12.32 22 13 C21.34 13 20.68 13 20 13 C20 12.34 20 11.68 20 11 C19.01 11 18.02 11 17 11 C16.67 9.35 16.34 7.7 16 6 C15.67 7.65 15.34 9.3 15 11 C14.01 11 13.02 11 12 11 C11.67 9.35 11.34 7.7 11 6 C10.67 7.65 10.34 9.3 10 11 C6.7 11 3.4 11 0 11 C0 7.37 0 3.74 0 0 Z M3 3 C7 4 7 4 7 4 Z M23 5 C23 5.99 23 6.98 23 8 C23.66 8 24.32 8 25 8 C25 7.01 25 6.02 25 5 C24.34 5 23.68 5 23 5 Z M3 7 C7 8 7 8 7 8 Z " fill="#BE3901" transform="translate(138,4)"/>
<path d="M0 0 C4 0 8 0 12 0 C12.33 0.99 12.66 1.98 13 3 C14.98 3 16.96 3 19 3 C18.4740625 4.3303125 18.4740625 4.3303125 17.9375 5.6875 C16.98244398 9.06203126 17.02848868 10.69686152 18 14 C15.24267176 13.51341266 12.75816794 12.91062728 10.125 11.9375 C6.6176678 10.88530034 3.64191576 10.85432337 0 11 C0 7.37 0 3.74 0 0 Z M3 3 C3 4.65 3 6.3 3 8 C4.32 7.67 5.64 7.34 7 7 C6.67 5.68 6.34 4.36 6 3 C5.01 3 4.02 3 3 3 Z M15 5 C15 5.99 15 6.98 15 8 C15.66 8 16.32 8 17 8 C17 7.01 17 6.02 17 5 C16.34 5 15.68 5 15 5 Z " fill="#C03A01" transform="translate(96,4)"/>
<path d="M0 0 C2.31 0 4.62 0 7 0 C7 0.99 7 1.98 7 3 C8.32 3.33 9.64 3.66 11 4 C10.67 6.31 10.34 8.62 10 11 C6.7 11 3.4 11 0 11 C0 7.37 0 3.74 0 0 Z M3 3 C7 4 7 4 7 4 Z M3 7 C7 8 7 8 7 8 Z " fill="#AA3300" transform="translate(138,4)"/>
<path d="M0 0 C1.81242052 -0.02687279 3.62495233 -0.04633715 5.4375 -0.0625 C6.44683594 -0.07410156 7.45617187 -0.08570313 8.49609375 -0.09765625 C11 0 11 0 12 1 C12.125 4 12.125 4 12 7 C11 8 11 8 8.625 8.375 C7.75875 8.25125 6.8925 8.1275 6 8 C4.1875 5.5 4.1875 5.5 3 3 C2.67 4.32 2.34 5.64 2 7 C1.34 7 0.68 7 0 7 C0 4.69 0 2.38 0 0 Z " fill="#C63C01" transform="translate(169,7)"/>
<path d="M0 0 C0.99 0 1.98 0 3 0 C3 3.3 3 6.6 3 10 C3.66 10.33 4.32 10.66 5 11 C2.36 11 -0.28 11 -3 11 C-3 10.34 -3 9.68 -3 9 C-3.99 9 -4.98 9 -6 9 C-5.67 8.34 -5.34 7.68 -5 7 C-4.34 7.33 -3.68 7.66 -3 8 C-3 7.01 -3 6.02 -3 5 C-3.66 4.67 -4.32 4.34 -5 4 C-4.0409375 3.8453125 -4.0409375 3.8453125 -3.0625 3.6875 C-2.381875 3.460625 -1.70125 3.23375 -1 3 C-0.67 2.01 -0.34 1.02 0 0 Z " fill="#B13401" transform="translate(166,4)"/>
<path d="M0 0 C0.99 0 1.98 0 3 0 C3 3.63 3 7.26 3 11 C1.02 11 -0.96 11 -3 11 C-2.01 10.67 -1.02 10.34 0 10 C0 6.7 0 3.4 0 0 Z " fill="#8D2A00" transform="translate(132,4)"/>
<path d="M0 0 C1.32 0.33 2.64 0.66 4 1 C3.34 2.65 2.68 4.3 2 6 C2.99 6 3.98 6 5 6 C5 6.66 5 7.32 5 8 C4.01 8 3.02 8 2 8 C2 8.66 2 9.32 2 10 C1.34 10 0.68 10 0 10 C0 6.7 0 3.4 0 0 Z " fill="#E84601" transform="translate(158,7)"/>
<path d="M0 0 C0.33 0 0.66 0 1 0 C1 2.97 1 5.94 1 9 C-0.32 9.33 -1.64 9.66 -3 10 C-3 6.13304322 -1.58090029 3.4911548 0 0 Z " fill="#EC4701" transform="translate(115,7)"/>
<path d="M0 0 C0.33 0.66 0.66 1.32 1 2 C3.64 2 6.28 2 9 2 C9 2.99 9 3.98 9 5 C7.375 5.75 7.375 5.75 5 6 C1.75 4.0625 1.75 4.0625 -1 2 C-0.67 1.34 -0.34 0.68 0 0 Z " fill="#8E2A00" transform="translate(105,12)"/>
<path d="M0 0 C1.98 0.495 1.98 0.495 4 1 C3.34 2.98 2.68 4.96 2 7 C1.01 6.67 0.02 6.34 -1 6 C-0.67 4.02 -0.34 2.04 0 0 Z " fill="#EA4701" transform="translate(145,7)"/>
<path d="M0 0 C1.32 0.33 2.64 0.66 4 1 C3.34 2.98 2.68 4.96 2 7 C1.34 7 0.68 7 0 7 C0 4.69 0 2.38 0 0 Z " fill="#EA4601" transform="translate(169,7)"/>
</svg>
